<svg width="1136" height="490" viewBox="0 0 1136 490" fill="none" xmlns="http://www.w3.org/2000/svg">
<path d="M334.674 196.049C334.674 258.021 310.483 342.374 261.623 362.925C243.536 370.526 203.495 380.31 167.321 380.31C74.9046 380.31 0 297.822 0 196.049C0 94.2768 78.0682 13.1262 181.062 5.13787C204.486 3.30793 214.104 17.314 234.716 27.3082C293.579 55.8834 334.674 120.67 334.674 196.049Z" fill="#0663AB"/>
<path d="M255.871 367.254C250.055 369.189 244.271 371.512 238.295 373.025C232.351 374.784 226.28 375.84 220.176 377.072C207.937 379.078 195.442 379.676 182.852 379.183C157.766 377.74 132.457 370.491 109.673 357.119C86.6963 344.098 66.7559 324.672 51.0975 301.693C35.5669 278.572 24.9256 251.334 20.2281 222.689C17.9912 208.366 17.6077 193.48 18.5983 179.228C19.589 164.87 21.8898 150.618 25.7245 136.858C33.5856 109.514 46.368 83.825 63.9757 63.0271C72.6996 52.5753 82.2545 43.0386 92.768 34.9798C103.281 26.9562 114.562 20.27 126.29 15.0617C149.841 4.92666 175.278 0.70374 199.596 4.08208H199.692C200.14 4.15246 200.427 4.57475 200.395 5.06742C200.331 5.52491 200.012 5.84163 199.596 5.84163C175.534 5.91201 151.599 12.0704 129.965 23.5427C108.299 34.9446 89.0611 51.7307 73.6903 72.0008C42.725 112.33 28.1212 167.72 36.0143 219.733C39.9449 245.704 49.5316 270.584 63.3685 292.121C77.1735 313.693 95.2925 331.887 116.032 345.189C136.771 358.456 160.035 366.902 183.906 369.998C195.858 371.512 207.905 371.828 219.92 371.125C231.936 370.28 243.855 368.239 255.615 365.529C256.063 365.424 256.478 365.74 256.574 366.198C256.67 366.655 256.414 367.078 256.031 367.218L255.871 367.254Z" fill="#272251"/>
<path d="M220.464 368.52C312.872 368.52 387.785 286.024 387.785 184.26C387.785 82.4961 312.872 0 220.464 0C128.055 0 53.1426 82.4961 53.1426 184.26C53.1426 286.024 128.055 368.52 220.464 368.52Z" fill="#00A199"/>
<path d="M459.685 162.864L436.709 240.706L414.532 162.864H385.995L362.763 239.967L340.682 162.864H308.726L344.293 283.71H377.687L399.417 209.914L420.508 283.71H453.742L489.309 162.864H459.685Z" fill="black"/>
<path d="M578.849 283.71H611.156L562.552 162.864H531.97L483.525 283.71H515.193L523.821 260.062H570.221L578.849 283.71ZM532.928 235.006L547.021 196.366L561.113 235.006H532.928Z" fill="black"/>
<path d="M687.627 283.71H720.861L697.15 245.633C703.86 242.149 709.101 237.399 712.808 231.205C716.739 224.66 718.688 216.706 718.688 207.381C718.688 198.301 716.739 190.383 712.808 183.627C708.878 176.905 703.253 171.732 695.967 168.178C688.649 164.624 679.989 162.829 669.955 162.829H619.944V283.675H650.973V251.545H667.75L687.627 283.71ZM682.61 194.536C685.837 197.703 687.467 201.997 687.467 207.416C687.467 213.047 685.837 217.445 682.61 220.542C679.382 223.639 674.525 225.187 668.038 225.187H650.941V189.785H668.038C674.525 189.785 679.382 191.369 682.61 194.536Z" fill="black"/>
<path d="M723.833 162.864V189.961H757.546V283.71H788.608V189.961H822.129V162.864H723.833Z" fill="black"/>
<path d="M864.95 256.578V162.864H833.889V283.71H917.134V256.578H864.95Z" fill="black"/>
<path d="M960.275 257.106V235.006H1009.01V209.633H960.275V189.433H1015.59V162.864H929.693V283.71H1017.64V257.106H960.275Z" fill="black"/>
<path d="M1102.77 283.71H1136L1112.29 245.633C1119 242.149 1124.24 237.399 1127.95 231.205C1131.88 224.66 1133.83 216.706 1133.83 207.381C1133.83 198.301 1131.88 190.383 1127.95 183.627C1124.02 176.905 1118.39 171.732 1111.11 168.178C1103.79 164.624 1095.13 162.829 1085.09 162.829H1035.08V283.675H1066.11V251.545H1082.89L1102.77 283.71ZM1097.75 194.536C1100.98 197.703 1102.61 201.997 1102.61 207.416C1102.61 213.047 1100.98 217.445 1097.75 220.542C1094.52 223.639 1089.66 225.187 1083.18 225.187H1066.08V189.785H1083.18C1089.66 189.785 1094.52 191.369 1097.75 194.536Z" fill="black"/>
<path d="M662.414 490H694.721L646.116 369.154H615.534L567.089 490H598.758L607.386 466.351H653.786L662.414 490ZM616.493 441.295L630.586 402.656L644.678 441.295H616.493Z" fill="#0663AB"/>
<path d="M890.739 439.043C887.543 434.081 883.069 430.316 877.253 427.747C876.614 427.466 875.943 427.254 875.304 427.008C879.714 424.474 883.261 421.201 885.785 417.119C888.725 412.404 890.163 406.949 890.163 400.72C890.163 391.395 886.616 383.793 879.49 377.917C872.396 372.04 861.563 369.119 847.023 369.119H791.228V489.965H850.187C865.014 489.965 876.294 487.044 883.964 481.167C891.633 475.29 895.5 467.196 895.5 456.815C895.532 449.953 893.934 444.005 890.739 439.043ZM843.156 393.823C848.365 393.823 852.296 394.773 854.916 396.673C857.536 398.574 858.847 401.53 858.847 405.577C858.847 409.377 857.536 412.263 854.916 414.198C852.296 416.169 848.397 417.119 843.156 417.119H821.842V393.823H843.156ZM860.093 462.269C857.377 464.275 853.286 465.296 847.854 465.296H821.842V440.768H847.854C853.286 440.768 857.377 441.788 860.093 443.794C862.809 445.8 864.183 448.897 864.183 453.049C864.183 457.202 862.809 460.264 860.093 462.269Z" fill="#0663AB"/>
<path d="M635.858 433.166C592.334 433.166 557.023 397.694 555.361 396.005C552.773 393.365 552.613 388.896 555.01 386.046C557.407 383.195 561.465 383.019 564.053 385.659C564.469 386.081 605.436 427.078 649.567 417.647C678.072 411.559 702.231 385.905 721.404 341.388C722.906 337.869 726.709 336.391 729.904 338.045C733.1 339.699 734.442 343.922 732.94 347.406C711.913 396.251 684.655 424.509 651.9 431.477C646.5 432.639 641.131 433.166 635.858 433.166Z" fill="#272251"/>
<path d="M1030.8 389.494C969.446 389.494 933.463 366.62 870.031 322.772C811.616 282.408 754.606 327.03 754.031 327.488C751.155 329.775 747.193 329.071 745.115 325.939C743.038 322.807 743.677 318.408 746.522 316.121C747.161 315.593 811.2 265.516 876.806 310.878C939.919 354.479 972.833 375.453 1030.77 375.453C1071.86 375.453 1114.46 357.013 1114.88 356.837C1118.14 355.394 1121.88 357.154 1123.19 360.778C1124.5 364.403 1122.9 368.485 1119.61 369.928C1117.82 370.702 1074.42 389.494 1030.8 389.494Z" fill="#272251"/>
<path d="M636.689 385.87L598.758 489.965H567.089L615.534 369.119" fill="#0663AB"/>
<path d="M324.48 450.445C324.8 450.445 325.119 450.445 325.439 450.445C403.922 450.445 443.676 403.5 472.691 369.189C490.906 347.687 504.104 332.133 519.347 335.019C522.862 335.687 526.122 333.118 526.729 329.282C527.336 325.447 525.003 321.822 521.52 321.153C499.375 316.93 482.694 336.708 463.328 359.582C434.376 393.823 398.362 436.369 325.439 436.369C325.119 436.369 324.832 436.369 324.512 436.369C264.882 436.087 235.579 395.547 224.139 373.869C219.888 374.784 215.479 375.629 210.973 376.368C222.317 399.207 255.296 450.093 324.48 450.445Z" fill="#272251"/>
<path d="M395.742 490V369.154H426.771V462.903H478.987V490H395.742Z" fill="#0663AB"/>
<path d="M183.651 170.641V54.6869H112.197V311.406H183.651V248.695L200.363 222.513L253.059 311.406H324.512L241.65 171.592" fill="#010202"/>
<path d="M96.0595 280.121C91.9691 278.08 113.635 192.389 175.214 146.747C221.071 112.752 245.965 119.825 273.766 98.6757C302.622 76.7165 313.104 47.0505 315.788 47.4024C317.386 47.6135 322.403 116.377 263.892 168.847C206.946 219.944 171.092 212.765 142.172 231.592C108.362 253.551 97.9449 281.036 96.0595 280.121Z" fill="white"/>
<path d="M213.306 187.48C230.082 177.848 239.713 161.658 234.817 151.317C229.922 140.977 212.354 140.403 195.578 150.035C178.802 159.667 169.171 175.858 174.066 186.198C178.962 196.538 196.53 197.112 213.306 187.48Z" fill="#9D9D9C"/>
<path d="M517.749 317.775L504.615 338.397C495.252 356.274 503.849 381.084 523.853 393.788C541.748 405.154 562.711 403.008 573.64 389.6L586.742 369.471L517.749 317.775Z" fill="#0663AB"/>
<path d="M587.896 367.464C597.267 349.589 588.658 324.795 568.667 312.084C548.676 299.373 524.873 303.559 515.501 321.434C506.13 339.309 514.739 364.103 534.73 376.814C554.721 389.525 578.524 385.338 587.896 367.464Z" fill="#00A199"/>
<path d="M582.748 376.192C580.479 381.048 576.644 385.025 572.33 387.981C567.888 390.796 562.871 392.486 557.758 393.154C547.468 394.421 537.051 391.183 528.167 385.553C523.789 382.597 519.795 378.867 516.439 374.573C513.084 370.28 510.144 365.494 508.45 360.11C506.661 354.796 505.766 349.095 506.117 343.464C506.597 337.869 508.227 332.344 511.198 327.98L511.486 328.156C506.533 337.517 506.852 349.341 510.751 359.054C514.618 368.872 521.52 377.142 529.861 382.562C538.137 388.087 547.916 391.148 557.63 390.409C567.249 389.776 576.964 384.92 582.524 375.981L582.748 376.192Z" fill="#272251"/>
<path d="M749.174 282.584L762.308 303.206C771.671 321.083 763.075 345.893 743.07 358.597C725.175 369.963 704.212 367.817 693.283 354.409L680.181 334.28L749.174 282.584Z" fill="#0663AB"/>
<path d="M732.178 341.607C752.169 328.896 760.778 304.101 751.407 286.227C742.035 268.352 718.232 264.166 698.241 276.877C678.25 289.588 669.641 314.382 679.012 332.257C688.384 350.131 712.187 354.317 732.178 341.607Z" fill="#00A199"/>
<path d="M684.463 340.825C687.723 344.837 691.621 348.004 695.967 349.904C700.249 351.981 704.883 352.966 709.485 353.072C718.72 353.318 727.987 350.467 735.784 345.013C743.869 340.016 750.324 332.168 754.383 323.054C756.428 318.479 757.674 313.482 757.898 308.379C758.281 303.241 757.387 297.998 755.501 293.036L755.789 292.86C760.838 302.291 760.582 314.291 756.684 324.145C752.849 334.104 745.882 342.479 737.478 348.039C729.074 353.599 719.167 356.626 709.357 355.816C699.61 355.113 689.8 350.116 684.24 341.071L684.463 340.825Z" fill="#272251"/>
</svg>
