<?xml version="1.0" encoding="utf-8"?>
<!-- Generator: Adobe Illustrator 23.0.3, SVG Export Plug-In . SVG Version: 6.00 Build 0)  -->
<svg version="1.1" id="Capa_1" xmlns="http://www.w3.org/2000/svg" xmlns:xlink="http://www.w3.org/1999/xlink" x="0px" y="0px"
	 viewBox="0 0 247 210" style="enable-background:new 0 0 247 210;" xml:space="preserve">
<style type="text/css">
	.st0{fill:#0663AB;}
	.st1{fill:#272251;}
	.st2{fill:#00A199;}
	.st3{fill:#010202;}
	.st4{fill:#FFFFFF;}
	.st5{fill:#9D9D9C;}
</style>
<g>
	<g id="Capa_3">
		<path class="st0" d="M158.18,104.85c0,17.61-7.57,41.58-22.86,47.42c-5.66,2.16-18.19,4.94-29.51,4.94
			c-28.92,0-52.36-23.44-52.36-52.36c0-28.92,24.43-51.98,56.66-54.25c7.33-0.52,10.34,3.46,16.79,6.3
			C145.32,65.02,158.18,83.44,158.18,104.85z"/>
		<path class="st1" d="M133.52,153.51c-1.82,0.55-3.63,1.21-5.5,1.64c-1.86,0.5-3.76,0.8-5.67,1.15c-3.83,0.57-7.74,0.74-11.68,0.6
			c-7.85-0.41-15.77-2.47-22.9-6.27c-7.19-3.7-13.43-9.22-18.33-15.75c-4.86-6.57-8.19-14.31-9.66-22.45
			c-0.7-4.07-0.82-8.3-0.51-12.35c0.31-4.08,1.03-8.13,2.23-12.04c2.46-7.77,6.46-15.07,11.97-20.98c2.73-2.97,5.72-5.68,9.01-7.97
			c3.29-2.28,6.82-4.18,10.49-5.66c7.37-2.88,15.33-4.08,22.94-3.12h0.03c0.14,0.02,0.23,0.14,0.22,0.28
			c-0.02,0.13-0.12,0.22-0.25,0.22c-7.53,0.02-15.02,1.77-21.79,5.03c-6.78,3.24-12.8,8.01-17.61,13.77
			c-9.69,11.46-14.26,27.2-11.79,41.98c1.23,7.38,4.23,14.45,8.56,20.57c4.32,6.13,9.99,11.3,16.48,15.08
			c6.49,3.77,13.77,6.17,21.24,7.05c3.74,0.43,7.51,0.52,11.27,0.32c3.76-0.24,7.49-0.82,11.17-1.59c0.14-0.03,0.27,0.06,0.3,0.19
			s-0.05,0.25-0.17,0.29L133.52,153.51z"/>
		
			<ellipse transform="matrix(0.0825 -0.9966 0.9966 0.0825 11.177 215.1602)" class="st2" cx="122.44" cy="101.51" rx="52.36" ry="52.36"/>
	</g>
	<g id="Capa_4">
		<polyline class="st3" points="110.92,97.63 110.92,64.69 88.56,64.69 88.56,137.64 110.92,137.64 110.92,119.82 116.15,112.37 
			132.64,137.64 155,137.64 129.07,97.91 		"/>
		<path class="st4" d="M83.51,128.74c-1.28-0.58,5.5-24.93,24.77-37.9c14.35-9.66,22.14-7.65,30.84-13.66
			c9.03-6.24,12.31-14.67,13.15-14.57c0.5,0.06,2.07,19.6-16.24,34.51c-17.82,14.52-29.04,12.48-38.09,17.83
			C87.36,121.2,84.1,129.01,83.51,128.74z"/>
		
			<ellipse transform="matrix(0.8867 -0.4623 0.4623 0.8867 -31.5854 65.2878)" class="st5" cx="117.43" cy="97.1" rx="10.72" ry="6"/>
	</g>
</g>
</svg>
